<svg width="259" height="145" viewBox="0 0 259 145" fill="none" xmlns="http://www.w3.org/2000/svg">
<path d="M4 22C4 23.1046 3.10457 24 2 24C0.89543 24 0 23.1046 0 22C0 20.8954 0.89543 20 2 20C3.10457 20 4 20.8954 4 22Z" fill="#E2E2E2" fill-opacity="0.25"/>
<path d="M18 22C18 23.1046 17.1046 24 16 24C14.8954 24 14 23.1046 14 22C14 20.8954 14.8954 20 16 20C17.1046 20 18 20.8954 18 22Z" fill="#E2E2E2" fill-opacity="0.25"/>
<path d="M32 22C32 23.1046 31.1046 24 30 24C28.8954 24 28 23.1046 28 22C28 20.8954 28.8954 20 30 20C31.1046 20 32 20.8954 32 22Z" fill="#E2E2E2" fill-opacity="0.25"/>
<path d="M46 22C46 23.1046 45.1046 24 44 24C42.8954 24 42 23.1046 42 22C42 20.8954 42.8954 20 44 20C45.1046 20 46 20.8954 46 22Z" fill="#E2E2E2" fill-opacity="0.25"/>
<path d="M60 22C60 23.1046 59.1046 24 58 24C56.8954 24 56 23.1046 56 22C56 20.8954 56.8954 20 58 20C59.1046 20 60 20.8954 60 22Z" fill="#E2E2E2" fill-opacity="0.25"/>
<path d="M74 22C74 23.1046 73.1046 24 72 24C70.8954 24 70 23.1046 70 22C70 20.8954 70.8954 20 72 20C73.1046 20 74 20.8954 74 22Z" fill="#E2E2E2" fill-opacity="0.25"/>
<path d="M4 36C4 37.1046 3.10457 38 2 38C0.89543 38 0 37.1046 0 36C0 34.8954 0.89543 34 2 34C3.10457 34 4 34.8954 4 36Z" fill="#E2E2E2" fill-opacity="0.25"/>
<path d="M18 36C18 37.1046 17.1046 38 16 38C14.8954 38 14 37.1046 14 36C14 34.8954 14.8954 34 16 34C17.1046 34 18 34.8954 18 36Z" fill="#E2E2E2" fill-opacity="0.25"/>
<path d="M32 36C32 37.1046 31.1046 38 30 38C28.8954 38 28 37.1046 28 36C28 34.8954 28.8954 34 30 34C31.1046 34 32 34.8954 32 36Z" fill="#E2E2E2" fill-opacity="0.25"/>
<path d="M46 36C46 37.1046 45.1046 38 44 38C42.8954 38 42 37.1046 42 36C42 34.8954 42.8954 34 44 34C45.1046 34 46 34.8954 46 36Z" fill="#E2E2E2" fill-opacity="0.25"/>
<path d="M60 36C60 37.1046 59.1046 38 58 38C56.8954 38 56 37.1046 56 36C56 34.8954 56.8954 34 58 34C59.1046 34 60 34.8954 60 36Z" fill="#E2E2E2" fill-opacity="0.25"/>
<path d="M74 36C74 37.1046 73.1046 38 72 38C70.8954 38 70 37.1046 70 36C70 34.8954 70.8954 34 72 34C73.1046 34 74 34.8954 74 36Z" fill="#E2E2E2" fill-opacity="0.25"/>
<path d="M4 50C4 51.1046 3.10457 52 2 52C0.89543 52 0 51.1046 0 50C0 48.8954 0.89543 48 2 48C3.10457 48 4 48.8954 4 50Z" fill="#E2E2E2" fill-opacity="0.25"/>
<path d="M18 50C18 51.1046 17.1046 52 16 52C14.8954 52 14 51.1046 14 50C14 48.8954 14.8954 48 16 48C17.1046 48 18 48.8954 18 50Z" fill="#E2E2E2" fill-opacity="0.25"/>
<path d="M32 50C32 51.1046 31.1046 52 30 52C28.8954 52 28 51.1046 28 50C28 48.8954 28.8954 48 30 48C31.1046 48 32 48.8954 32 50Z" fill="#E2E2E2" fill-opacity="0.25"/>
<path d="M46 50C46 51.1046 45.1046 52 44 52C42.8954 52 42 51.1046 42 50C42 48.8954 42.8954 48 44 48C45.1046 48 46 48.8954 46 50Z" fill="#E2E2E2" fill-opacity="0.25"/>
<path d="M60 50C60 51.1046 59.1046 52 58 52C56.8954 52 56 51.1046 56 50C56 48.8954 56.8954 48 58 48C59.1046 48 60 48.8954 60 50Z" fill="#E2E2E2" fill-opacity="0.25"/>
<path d="M74 50C74 51.1046 73.1046 52 72 52C70.8954 52 70 51.1046 70 50C70 48.8954 70.8954 48 72 48C73.1046 48 74 48.8954 74 50Z" fill="#E2E2E2" fill-opacity="0.25"/>
<path d="M186.5 0C223.809 0 254.586 27.7646 259 63.6129H223.615C219.586 46.9761 204.498 34.6129 186.5 34.6129C168.502 34.6129 153.414 46.9761 149.385 63.6129H114C118.414 27.7646 149.191 0 186.5 0Z" fill="#E2E2E2" fill-opacity="0.25"/>
<path d="M223.615 81.3871H259C254.586 117.235 223.809 145 186.5 145C149.191 145 118.414 117.235 114 81.3871H149.385C153.414 98.0239 168.502 110.387 186.5 110.387C204.498 110.387 219.586 98.0239 223.615 81.3871Z" fill="#E2E2E2" fill-opacity="0.25"/>
<path d="M186.5 96.3548C199.773 96.3548 210.534 85.6747 210.534 72.5C210.534 59.3253 199.773 48.6452 186.5 48.6452C173.227 48.6452 162.466 59.3253 162.466 72.5C162.466 85.6747 173.227 96.3548 186.5 96.3548Z" fill="#E2E2E2" fill-opacity="0.25"/>
</svg>
